# xmcd
#
# Track frame offsets:
#	150
#	11735
#	21542
#	32068
#	45353
#	56383
#	67366
#	77559
#	87242
#	100508
#	112078
#	124203
#	137402
#	148175
#	159252
#	173986
#	188343
#	199377
#	210765
#	219184
#	231213
#	242801
#	255507
#	266925
#	274618
#	289817
#	300470
#	311484
#	323127
#	335106
#
# Disc length: 4615 seconds
#
# Revision: 1
# Processed by: cddbd v1.5.2PL0 Copyright (c) Steve Scherf et al.
# Submitted via: audiograbber 1.83.01
#
DISCID=af12051e
DTITLE=Various Artist - Hy Weiss Presents Old Town Records (Disc2)
DYEAR=2003
DGENRE=R&B
TTITLE0=The Solitaires - Walking Along
TTITLE1=The Fiestas - Last Night I Dreamed
TTITLE2=Ruth McFadden - Teenage Blues
TTITLE3=Bob Gaddy - Paper Lady
TTITLE4=Gene Mumford and The Serenaders - Please Give Me One More Chance
TTITLE5=The Vocaleers - I Need Your Love So Bad 
TTITLE6=Titus Turner - We Told You Not To Marry
TTITLE7=Titus Turner - Taking Care Of Business
TTITLE8=Larry Dale - Big Muddy
TTITLE9=Larry Dale - Let The  Doorbell Ring
TTITLE10=Brownie McGhee and Sonny Terry - She Loves So Easy
TTITLE11=The Fairfield Four - Memories (Of My Mother)
TTITLE12=Billy Bland - Harmony
TTITLE13=Arthur Prysock - Good Rockin' Tonight
TTITLE14=Larry Finnegan - Dear One
TTITLE15=The Vocaleers - One For My Baby (And One For The Road)
TTITLE16=The Ovations - The Day We Fell In Love
TTITLE17=The Bonnevilles - Lorraine
TTITLE18=The Adams Brothers - Burnin' In Pain
TTITLE19=The Fiestas - Broken Heart
TTITLE20=Donald Height - I'll Never Forget You
TTITLE21=Rosco Gordon - Gotta Keep Rolling
TTITLE22=Buddy and Ella Johnson - Like You Do
TTITLE23=Lester Young - Down To The River
TTITLE24=Tarheel Slim and Little Ann - I Really Don't Want To Know
TTITLE25=Eddie Alston - I Just Can't Help It
TTITLE26=The Crowns - Possibility
TTITLE27=The Gypsies - Jerk It
TTITLE28=Jessie Gee - Baby, I Need You
TTITLE29=Thelma Jones - Never Leave Me
EXTD=
EXTT0=
EXTT1=
EXTT2=
EXTT3=
EXTT4=
EXTT5=
EXTT6=
EXTT7=
EXTT8=
EXTT9=
EXTT10=
EXTT11=
EXTT12=
EXTT13=
EXTT14=
EXTT15=
EXTT16=
EXTT17=
EXTT18=
EXTT19=
EXTT20=
EXTT21=
EXTT22=
EXTT23=
EXTT24=
EXTT25=
EXTT26=
EXTT27=
EXTT28=
EXTT29=
PLAYORDER=
